<svg xmlns="http://www.w3.org/2000/svg" viewBox="0 0 408.788 408.788">
  <path d="M353.7 0H55.088C24.665 0 .002 24.662.002 55.085V353.7c0 30.424 24.662 55.086 55.085 55.086h147.275l.25-146.078h-37.95c-4.932 0-8.935-3.988-8.954-8.92l-.182-47.087c-.02-4.958 3.996-8.988 8.955-8.988h37.883v-45.498c0-52.8 32.247-81.55 79.348-81.55h38.65c4.946 0 8.956 4.01 8.956 8.955v39.703c0 4.944-4.007 8.952-8.95 8.955l-23.72.01c-25.614 0-30.574 12.173-30.574 30.036v39.39h56.285c5.363 0 9.524 4.682 8.892 10.008l-5.582 47.087c-.534 4.505-4.355 7.9-8.892 7.9h-50.453l-.25 146.078h87.63c30.422 0 55.084-24.662 55.084-55.084V55.084C408.787 24.663 384.124 0 353.7 0z" fill="#475993"/>
</svg>
