<svg xmlns="http://www.w3.org/2000/svg" viewBox="0 0 455.731 455.731">
  <path fill="#44678D" d="M0 0h455.73v455.73H0z"/>
  <path d="M118.06 138.69c10.922 26.972 24.764 52.402 42.995 75.23 2.418 3.04 5.466 5.74 8.677 7.94 4.69 3.22 9.115 2.088 11.022-3.277 2.017-5.63 3.868-17.04 3.978-22.952.3-15.447-.045-25.57-.875-41-.538-9.882-4.05-18.56-18.587-21.178-4.49-.812-4.906-4.507-2.022-8.193 6.004-7.675 14.368-8.898 23.438-9.382 14.7-.794 29.454-.146 44.172 0 5.995.055 12.026.538 17.93 1.825 7.7 1.68 11.825 7.08 13.094 14.6.657 3.877.995 7.864.903 11.788-.383 16.863-1.195 33.716-1.387 50.57-.082 6.614.4 13.394 1.816 19.836 1.98 8.978 8.093 11.232 14.344 4.745 7.938-8.238 14.937-17.51 21.506-26.925 11.935-17.127 20.85-35.923 28.523-55.303 3.97-10 7.008-12.172 17.765-12.2 20.22-.045 40.44-.063 60.66 0 3.586.02 7.336.357 10.72 1.434 5.494 1.752 7.675 6.232 6.388 11.917-3.002 13.322-10.2 24.645-17.91 35.53-12.374 17.465-25.34 34.51-38.004 51.773-1.615 2.2-3.038 4.544-4.362 6.925-4.736 8.56-4.407 13.36 2.5 20.485 10.995 11.342 22.766 21.953 33.414 33.605 7.738 8.477 14.9 17.674 21.032 27.355 7.756 12.245 2.965 23.778-11.524 25.83-9.115 1.288-53.64.01-55.942 0-11.97-.053-22.464-4.205-30.914-12.335-9.398-9.05-17.94-18.98-26.963-28.423-2.72-2.847-5.62-5.575-8.75-7.957-7.382-5.63-14.627-4.38-18.076 4.29-2.946 7.445-5.492 26.998-5.61 28.668-.62 8.732-6.178 14.298-15.96 14.836-28.24 1.533-55.605-1.615-81.098-15.274-21.607-11.57-38.86-27.93-53.807-47.01-23.742-30.303-42.495-63.614-59.616-97.903-.876-1.753-18.217-38.653-18.683-40.396-1.55-5.835-.104-11.41 4.827-13.33 3.074-1.195 60.248-.003 61.2.048 9.122.494 15.343 4.343 19.186 13.812z" fill="#FFF"/>
</svg>
